# Blender v2.90.1 OBJ File: 'cubes.blend'
# www.blender.org
mtllib cube_model.mtl
o Cube
v 1.000000 1.000000 -1.000000
v 1.000000 -1.000000 -1.000000
v 1.000000 1.000000 1.000000
v 1.000000 -1.000000 1.000000
v -1.000000 1.000000 -1.000000
v -1.000000 -1.000000 -1.000000
v -1.000000 1.000000 1.000000
v -1.000000 -1.000000 1.000000
vt 0.666489 0.333511
vt 0.999734 0.333511
vt 0.999734 0.666755
vt 0.666489 0.666755
vt 0.333245 0.666755
vt 0.666489 1.000000
vt 0.333245 1.000000
vt 0.000000 0.000604
vt 0.333245 0.000604
vt 0.333245 0.333849
vt 0.000000 0.333849
vt 0.000000 0.333511
vt 0.333245 0.333511
vt 0.000000 0.666755
vt 0.333245 0.000266
vt 0.666489 0.000266
vn 0.0000 1.0000 0.0000
vn 0.0000 0.0000 1.0000
vn -1.0000 0.0000 0.0000
vn 0.0000 -1.0000 0.0000
vn 1.0000 0.0000 0.0000
vn 0.0000 0.0000 -1.0000
usemtl Material
s off
f 1/1/1 5/2/1 7/3/1 3/4/1
f 4/5/2 3/4/2 7/6/2 8/7/2
f 8/8/3 7/9/3 5/10/3 6/11/3
f 6/12/4 2/13/4 4/5/4 8/14/4
f 2/13/5 1/1/5 3/4/5 4/5/5
f 6/15/6 5/16/6 1/1/6 2/13/6
